<svg xmlns="http://www.w3.org/2000/svg" xmlns:xlink="http://www.w3.org/1999/xlink" width="461" height="297" viewBox="0 0 461 297">
  <defs>
    <clipPath id="clip-about">
      <rect width="461" height="297"/>
    </clipPath>
  </defs>
  <g id="about" clip-path="url(#clip-about)">
    <g id="OBJECTS" transform="translate(-22.297 -100.307)">
      <g id="Group_44" data-name="Group 44">
        <g id="Group_1" data-name="Group 1">
          <path id="Path_1" data-name="Path 1" d="M290.037,341s46.08,33.9,72.308-19.255C313.154,288.667,290.037,341,290.037,341Z" fill="#dfe1f7"/>
          <path id="Path_2" data-name="Path 2" d="M312.849,316.62s5.4,3.2,10.845,6.4c2.723,1.6,5.456,3.189,7.532,4.378,1.038.594,1.912,1.088,2.54,1.431l.191.1-22.383,5.96-11.857-6.87-.361.624,11.232,6.508-18.9,5.034.186.7,29.47-7.848L311.7,349.67l.624.362,10-17.261,19.31-5.142-6.831,17.928.655.25,7.011-18.4,12.81-3.411-.186-.7-20.1,5.353c-.069-.03-.188-.087-.361-.179-1.641-.859-7.008-3.984-11.947-6.885-2.472-1.451-4.839-2.848-6.589-3.882l-2.1-1.24-.784-.465Z" fill="#fff"/>
        </g>
        <g id="Group_2" data-name="Group 2">
          <path id="Path_3" data-name="Path 3" d="M205.183,338.047s-46.079,33.9-72.307-19.255C182.066,285.717,205.183,338.047,205.183,338.047Z" fill="#dfe1f7"/>
          <path id="Path_4" data-name="Path 4" d="M182.371,313.671s-5.4,3.2-10.845,6.394c-2.723,1.6-5.456,3.189-7.532,4.378-1.038.6-1.912,1.088-2.539,1.432l-.192.1,22.383,5.96,11.857-6.87.361.624L184.632,332.2l18.9,5.033-.185.7-29.471-7.848,9.64,16.638-.624.361-10-17.261-19.31-5.142,6.83,17.929-.655.249-7.011-18.4-12.809-3.411.185-.7,20.1,5.353c.069-.031.188-.088.362-.179,1.641-.86,7.007-3.984,11.947-6.885,2.471-1.451,4.838-2.848,6.588-3.882l2.1-1.241.785-.465Z" fill="#fff"/>
        </g>
        <g id="Group_3" data-name="Group 3">
          <path id="Path_5" data-name="Path 5" d="M109.084,144.7S33.1,168.151,70.808,241.409C148.434,213.8,109.084,144.7,109.084,144.7Z" fill="#dfe1f7"/>
          <path id="Path_6" data-name="Path 6" d="M117.456,190.344s-8.044,3.386-16.112,6.83c-4.034,1.722-8.074,3.459-11.119,4.795-1.523.668-2.8,1.236-3.7,1.654l-.273.128L98.1,173.815l17.48-7.567-.4-.919L98.622,172.5l10.006-25.281-.932-.369L92.1,186.262,81.479,161.735l-.92.4L91.574,187.58,81.352,213.406,66.97,190.95l-.821.526L80.91,214.523l-6.781,17.132.932.369L85.7,205.139c.091-.052.254-.137.5-.256,2.317-1.122,10.245-4.534,17.571-7.655,3.664-1.561,7.183-3.051,9.785-4.151l3.12-1.317,1.168-.492Z" fill="#fff"/>
        </g>
        <g id="Group_4" data-name="Group 4">
          <path id="Path_7" data-name="Path 7" d="M23.984,201.247S7.332,268.2,78.652,273.04C92.951,203,23.984,201.247,23.984,201.247Z" fill="#b1b2f3"/>
          <path id="Path_8" data-name="Path 8" d="M61.639,215.494s-1.092,7.493-2.151,15.03c-.53,3.769-1.052,7.548-1.425,10.409-.186,1.431-.335,2.632-.43,3.489-.011.1-.018.173-.028.261L40.683,222.459,42.9,206.083l-.861-.116-2.1,15.514L25.647,202.713l-.692.527L47.236,232.5l-22.979-3.112-.116.862,23.84,3.228,14.6,19.173-23.129.613.023.846,23.738-.63L72.9,266.2l.692-.527-15.2-19.959c0-.091.012-.25.034-.485.205-2.225,1.225-9.643,2.193-16.484.483-3.422.954-6.7,1.3-9.129.175-1.213.32-2.212.421-2.908s.158-1.087.158-1.088Z" fill="#fff"/>
        </g>
        <g id="Group_5" data-name="Group 5">
          <path id="Path_9" data-name="Path 9" d="M49.945,234.617S2.8,314.448,92.791,348.064C138.093,263.352,49.945,234.617,49.945,234.617Z" fill="#fbd15b"/>
          <path id="Path_10" data-name="Path 10" d="M92.972,267.421s-4.284,9.231-8.541,18.531c-2.129,4.65-4.252,9.317-5.83,12.858-.79,1.772-1.443,3.26-1.894,4.329-.051.12-.09.215-.135.325L63.308,268.346l9.143-20.238-1.065-.481L62.725,266.8l-11.2-29.656-1.093.412,17.463,46.238-28.4-12.828-.482,1.065L68.477,285.34l11.442,30.3L49.9,307.548l-.3,1.1,30.813,8.3L88,337.045l1.093-.413L77.187,305.093c.038-.116.11-.318.229-.612,1.118-2.786,5.28-11.949,9.152-20.387,1.936-4.222,3.8-8.267,5.184-11.257.691-1.495,1.261-2.726,1.658-3.583s.621-1.34.622-1.341Z" fill="#fff"/>
        </g>
        <g id="Group_6" data-name="Group 6">
          <path id="Path_11" data-name="Path 11" d="M482.547,255s-56.913-5.8-52.5,53.316C489.217,311.819,482.547,255,482.547,255Z" fill="#dfe1f7"/>
          <path id="Path_12" data-name="Path 12" d="M475.28,287.586s-6.279-.016-12.59,0c-3.156.008-6.32.025-8.712.055-1.2.015-2.2.034-2.914.057l-.218.008L467.1,271.2l13.7-.106-.005-.721-12.982.1,13.725-13.937-.514-.506-21.4,21.73-.148-19.228-.721.006.153,19.948L444.89,292.728l-3.223-18.913-.692.118,3.309,19.41-9.3,9.446.513.506,14.6-14.823c.075-.008.207-.02.4-.029,1.85-.093,8.059-.128,13.788-.138,2.866-.006,5.615-.005,7.647,0l2.436,0,.912,0Z" fill="#fff"/>
        </g>
        <g id="Group_7" data-name="Group 7">
          <path id="Path_13" data-name="Path 13" d="M448.373,178.917s-81.9,43.456-22.712,119.122C508.537,249.458,448.373,178.917,448.373,178.917Z" fill="#b1b2f3"/>
          <path id="Path_14" data-name="Path 14" d="M467.933,229.363s-8.474,5.635-16.962,11.342c-4.244,2.854-8.492,5.725-11.687,7.921-1.6,1.1-2.933,2.027-3.876,2.7l-.285.207,7.03-36.875,18.366-12.485-.657-.966-17.4,11.827L448.4,181.9l-1.148-.219-9.257,48.551-17.518-25.772-.967.657,18.176,26.739-6.065,31.811-21.379-22.577-.825.782,21.941,23.171-4.023,21.1,1.148.219,6.314-33.117c.093-.079.26-.213.515-.4,2.408-1.792,10.743-7.432,18.452-12.606,3.856-2.589,7.56-5.064,10.3-6.892l3.285-2.19,1.231-.819Z" fill="#fff"/>
        </g>
        <g id="Group_8" data-name="Group 8">
          <path id="Path_15" data-name="Path 15" d="M341.3,134.047s-22.383,52.648,35.385,65.932C397.545,144.495,341.3,134.047,341.3,134.047Z" fill="#dfe1f7"/>
          <path id="Path_16" data-name="Path 16" d="M370.273,150.634s-1.873,5.993-3.726,12.026c-.926,3.017-1.847,6.043-2.526,8.338-.34,1.147-.619,2.11-.808,2.8-.022.078-.038.14-.057.21L352.2,153.6l3.956-13.12-.691-.208L351.72,152.7l-9.25-17.235-.636.341,14.423,26.872-18.41-5.55-.208.69,19.1,5.758,9.45,17.608-19.02-2.52-.092.7,19.52,2.585,6.269,11.68.636-.341-9.838-18.329c.014-.074.042-.2.091-.393.459-1.795,2.263-7.736,3.949-13.211.843-2.739,1.658-5.365,2.261-7.306.3-.97.551-1.769.724-2.326s.272-.869.272-.87Z" fill="#fff"/>
        </g>
        <path id="Path_17" data-name="Path 17" d="M232.2,204.545h8.754a8.4,8.4,0,0,1,8.334-7.735h13.122a11.309,11.309,0,0,1-.423-3.028,11.463,11.463,0,0,1,11.429-11.429h20.124a11.463,11.463,0,0,1,11.429,11.429,11.309,11.309,0,0,1-.423,3.028h1.791a8.4,8.4,0,0,1,8.333,7.735H317.3a10.851,10.851,0,1,1,0,21.7H232.2a10.851,10.851,0,1,1,0-21.7Z" fill="#dfe1f7"/>
        <path id="Path_18" data-name="Path 18" d="M400.52,352.1v6.267l-26.112,14.5V366.6Z" fill="#112b46"/>
        <path id="Path_19" data-name="Path 19" d="M374.408,366.6v6.267l-34.081-11.364v-6.267Z" fill="#6262a0"/>
        <path id="Path_20" data-name="Path 20" d="M400.52,352.1l-26.112,14.5-34.081-11.364,18.853-10.184v3.133l20.451,6.006,7.186-3.133v-3.53Z" fill="#56548c"/>
        <path id="Path_21" data-name="Path 21" d="M386.816,347.53v3.53l-7.186,3.133v-21.84l7.186.4Z" fill="#112b46"/>
        <path id="Path_22" data-name="Path 22" d="M379.63,332.354v21.84l-20.451-6.006V331.215Z" fill="#6262a0"/>
        <path id="Path_23" data-name="Path 23" d="M426.37,334.087l-11.141,4.439V153.4l11.141,2.17Z" fill="#112b46"/>
        <path id="Path_24" data-name="Path 24" d="M303.133,328.092V196.29L415.226,153.4V338.527Z" fill="#56548c"/>
        <path id="Path_25" data-name="Path 25" d="M410.709,160.707v166.33L307.655,321.3V200.133l50.328-19.258Z" fill="#fbd15b"/>
        <path id="Path_26" data-name="Path 26" d="M217.386,183.3a12.2,12.2,0,0,0-1.528-5.218l1.514-.843a13.977,13.977,0,0,0-2.923-3.644l-1.153,1.3a12.18,12.18,0,0,0-4.764-2.62L209,170.61l-.021-.006a13.958,13.958,0,0,0-3.806-.531q-.411,0-.819.025l.1,1.729a12.216,12.216,0,0,0-5.219,1.524l-.843-1.514a13.987,13.987,0,0,0-3.646,2.92l1.3,1.153a12.187,12.187,0,0,0-2.624,4.762l-1.659-.473-.009.032a13.952,13.952,0,0,0-.531,3.806q0,.405.024.807l1.73-.1a12.213,12.213,0,0,0,1.519,5.221l-1.515.841a13.99,13.99,0,0,0,2.917,3.648l1.155-1.294a12.19,12.19,0,0,0,4.76,2.627l-.475,1.659.043.012a13.953,13.953,0,0,0,3.806.531c.281,0,.562-.009.841-.026l-.105-1.729a12.213,12.213,0,0,0,5.216-1.533l.845,1.513a13.98,13.98,0,0,0,3.642-2.926l-1.3-1.151a12.19,12.19,0,0,0,2.617-4.766l1.659.471,0-.011a13.912,13.912,0,0,0,.53-3.806c0-.278-.008-.554-.024-.83Zm-15.233,11.443h0l.085-.3Zm10.146-8.7a7.388,7.388,0,1,1,.281-2.018A7.4,7.4,0,0,1,212.3,186.044Z" fill="#b1b2f3"/>
        <path id="Path_27" data-name="Path 27" d="M225.735,247.269a19.608,19.608,0,0,0-2.452-8.375l2.429-1.354a22.456,22.456,0,0,0-4.692-5.849l-1.85,2.082a19.545,19.545,0,0,0-7.646-4.206l.758-2.663-.035-.01a22.442,22.442,0,0,0-6.109-.851q-.66,0-1.313.039l.164,2.776a19.609,19.609,0,0,0-8.377,2.445l-1.352-2.43a22.452,22.452,0,0,0-5.853,4.687l2.08,1.852a19.548,19.548,0,0,0-4.211,7.643l-2.663-.76-.015.052a22.363,22.363,0,0,0-.851,6.108q0,.651.037,1.3l2.777-.162A19.6,19.6,0,0,0,189,257.968l-2.431,1.35a22.446,22.446,0,0,0,4.682,5.856L193.1,263.1a19.547,19.547,0,0,0,7.64,4.217l-.763,2.663.07.02a22.4,22.4,0,0,0,6.108.851q.678,0,1.35-.041l-.169-2.775a19.615,19.615,0,0,0,8.373-2.46L217.069,268a22.416,22.416,0,0,0,5.845-4.7l-2.082-1.848a19.553,19.553,0,0,0,4.2-7.651l2.663.756,0-.017a22.44,22.44,0,0,0,.851-6.108q0-.669-.04-1.332Zm-24.451,18.368h0l.137-.484Zm16.285-13.961a11.852,11.852,0,1,1,.452-3.238A11.875,11.875,0,0,1,217.569,251.676Z" fill="#fbd15b"/>
        <g id="Group_11" data-name="Group 11">
          <g id="Group_10" data-name="Group 10">
            <g id="Group_9" data-name="Group 9">
              <path id="Path_28" data-name="Path 28" d="M160.125,357.717v5.512l-17.3,13.05v-5.123Z" fill="#bcbec0"/>
              <path id="Path_29" data-name="Path 29" d="M142.824,371.157v5.122s-16.94-1.44-21.4-4.8c-3.658-2.773-4.029-10.072-4.063-11.458l5.02-2.794s-1.688,7.873,1.869,10.548C128.135,370.713,142.824,371.157,142.824,371.157Z" fill="#808285"/>
              <path id="Path_30" data-name="Path 30" d="M117.363,360.024,98.734,370.377a5.918,5.918,0,0,1-1.925.682V354.717l77.105-42.031H176.9v14.242L146.2,344,122.383,357.23Z" fill="#bcbec0"/>
              <path id="Path_31" data-name="Path 31" d="M176.9,190.754V312.686h-2.983V192.475l-77.105-18.14V169.05L174.4,187.672A3.2,3.2,0,0,1,176.9,190.754Z" fill="#bcbec0"/>
              <path id="Path_32" data-name="Path 32" d="M173.918,192.478V312.683L96.807,354.716V174.332Z" fill="#606bf1"/>
              <path id="Path_33" data-name="Path 33" d="M160.125,357.717l-17.3,13.44s-14.689-.444-18.572-3.379c-3.557-2.675-1.869-10.548-1.869-10.548L146.2,344l-.225,4.148c.293,4.342,2.623,4.895,5.561,6.172Z" fill="#d1d3d4"/>
              <path id="Path_34" data-name="Path 34" d="M96.809,371.059v.1H95.728A6.079,6.079,0,0,0,96.809,371.059Z" fill="#808285"/>
              <path id="Path_35" data-name="Path 35" d="M96.809,354.717v16.342a6.079,6.079,0,0,1-1.081.1,5.935,5.935,0,0,1-6.044-5.816V173.5a4.906,4.906,0,0,1,4.986-4.808,5.268,5.268,0,0,1,1.216.14l.923.217V354.717Z" fill="#bcbec0"/>
              <path id="Path_36" data-name="Path 36" d="M95.728,371.157H92.644c-9.05,0-16.378-7.05-16.378-15.747V181.223a12.784,12.784,0,0,1,13.024-12.53h5.38a4.906,4.906,0,0,0-4.986,4.808v191.84A5.935,5.935,0,0,0,95.728,371.157Z" fill="#808285"/>
            </g>
          </g>
        </g>
        <g id="Group_15" data-name="Group 15">
          <g id="Group_14" data-name="Group 14">
            <g id="Group_13" data-name="Group 13">
              <g id="Group_12" data-name="Group 12">
                <path id="Path_37" data-name="Path 37" d="M318.386,309.394c.148,5.093-.955,6.855-.955,6.855s-2.842-1.194-3.785-3Z" fill="#d4d6d8"/>
                <path id="Path_38" data-name="Path 38" d="M328.743,316.9c-3.82,1.569-6.946-3.65-6.946-3.65l-.148-.2,9.083-6.912q-.118,4.843-.727,10.118A9.069,9.069,0,0,1,328.743,316.9Z" fill="#112b46"/>
                <path id="Path_39" data-name="Path 39" d="M263.125,255.792c12.528,1.751,15.325.182,19.849-3.99,0,0,14.358-5.15,26.886,25.669,6.639,16.291,8.367,26.2,8.526,31.923l-4.74,3.853-14.779,12.005a27.7,27.7,0,0,0-3.706-8.06c-3.32-5.456-10.448-18.053-32.036-30.933s-18.974-1.034-33.423,2.956-19.326-6.082-18.1-9.22c.989-2.558,17.78-14.187,26.079-19.678,1.853-1.24,3.3-2.16,4.024-2.6C245.709,255.269,250.586,254.053,263.125,255.792Z" fill="#d1ae88"/>
                <path id="Path_40" data-name="Path 40" d="M410.709,160.707V250c-33.662,29.421-80.59,65.214-80.7,66.249q.613-5.27.727-10.118c.683-29.91-12.562-47.44-23.077-56.592A58.171,58.171,0,0,0,297,242.093s-2.149,1.239-4.889,3a4.026,4.026,0,0,1-.136-3.319c.557-1.069,6.639-6.889,15.677-15.222,13.153-12.153,32.593-29.66,50.327-45.678Z" fill="#112b46"/>
                <path id="Path_41" data-name="Path 41" d="M297,242.093c7.446,3.956,34.7,21.441,33.729,64.038l-9.083,6.912-4.218,3.206s1.1-1.762.955-6.855c-.159-5.719-1.887-15.632-8.526-31.923-12.528-30.819-26.886-25.669-26.886-25.669a73.384,73.384,0,0,1,9.14-6.708C294.854,243.332,297,242.093,297,242.093Z" fill="#e6e7e8"/>
                <path id="Path_42" data-name="Path 42" d="M165.812,319.511a20.108,20.108,0,0,0,4.369-3.618l-4-4.938-1.989,2.747Z" fill="#b7babc"/>
                <path id="Path_43" data-name="Path 43" d="M297,331.607a5.643,5.643,0,0,1-5.287,1.364,9.3,9.3,0,0,1-1.33-.4,11.734,11.734,0,0,1,.716,2.126l.012.011c.557,2.251.83,5.855-1.876,8.56-2.66,2.66-5,3.718-8.833,2.251-.284-.1-.569-.227-.875-.364a8.466,8.466,0,0,1,1.409,3.559,6.874,6.874,0,0,1-1.967,5.866c-2.626,2.819-5.274,2.933-7.253,2.364a8.808,8.808,0,0,1-1.284-.489,6.926,6.926,0,0,1,.523,1.319,5.433,5.433,0,0,1-.966,5.082c-2.433,2.956-6.947,2.08-11.573,0-1.6-.739-4.514-1.99-7.64-3.32-5.843-2.478-12.38-5.218-12.38-5.218s1.751-3.217-2.831-9.094c-2.592-3.331-5.468-3.684-7.821-2.308-.012-.182,1.887-9.743-4.047-13.608-3.479-2.274-6.264-.568-8.436,2.512,0,0-.443-7.491-5.536-8.787-3.763-.967-5.877,1.25-8.253,5.229.022-.034-1.808-8.879-6.639-8.754-3.593.091-6.685,3.3-8.515,7.469l-17.542-12.05-2.967-2.035-.182-.011c.58-10.834,5.139-33.9,30.286-61.06,6.15,3.366,11.493,5.946,13.812,6.583,5.229,1.444,6.7.181,15.057-.467a37.8,37.8,0,0,1,14.295,1.451c-8.3,5.491-26.487,18.046-27.476,20.6-1.228,3.138,3.649,13.222,18.1,9.22s11.835-15.836,33.423-2.956,28.716,25.477,32.036,30.933a27.7,27.7,0,0,1,3.706,8.06A6.226,6.226,0,0,1,297,331.607Z" fill="#e8c8a1"/>
                <path id="Path_44" data-name="Path 44" d="M250.779,359.539s-10.754,6.571-18.985,3.32a20.555,20.555,0,0,1-2.649-1.251.418.418,0,0,1-.136-.079l-1-.591c-4.945-3.252-5.82-7.72-4.308-12.449a9.914,9.914,0,0,1,4.024-5.559c.011,0,.011-.011.023-.011a3.48,3.48,0,0,1,.625-.307c2.228-.989,4.832-.432,7.2,2.615,4.582,5.877,2.831,9.094,2.831,9.094S244.936,357.061,250.779,359.539Z" fill="#d1ae88"/>
                <path id="Path_45" data-name="Path 45" d="M228.008,360.938l-.432.056-6.855.83a7.817,7.817,0,0,1-4.9-1.023,8.107,8.107,0,0,1-.989-.682c-2.125-1.739-4.808-4.184-5.5-6.014-1.171-3.137-.261-7.958,2.081-14.358a35.337,35.337,0,0,1,3.853-7.924,14.672,14.672,0,0,1,.944-1.2c2.024-2.273,4.5-3.263,7.492-1.307,5.286,3.444,4.354,11.414,4.1,13.221-.034.228-.057.364-.057.387-.012,0-.012.011-.023.011a9.914,9.914,0,0,0-4.024,5.559C222.188,353.218,223.063,357.686,228.008,360.938Z" fill="#d1ae88"/>
                <path id="Path_46" data-name="Path 46" d="M214.832,360.119s-.136.011-.386.046a85.1,85.1,0,0,1-9.64.42c-4.627-.125-7.742-2.512-10.493-7.116a8.23,8.23,0,0,1-.853-1.99,8.142,8.142,0,0,1-.307-1.41c-.705-5.161,2.524-11.357,5.6-16.927,1-1.808,1.875-3.456,2.717-4.877.284-.477.568-.921.841-1.341,2.058-3.127,4.093-4.741,7.412-3.888,4.354,1.1,5.309,6.741,5.491,8.355.034.273.045.432.045.432a35.337,35.337,0,0,0-3.853,7.924c-2.342,6.4-3.252,11.221-2.081,14.358C210.024,355.935,212.707,358.38,214.832,360.119Z" fill="#d1ae88"/>
                <path id="Path_47" data-name="Path 47" d="M198.758,333.142c-3.081,5.57-6.31,11.766-5.6,16.927-.1-.022-.193-.045-.3-.068v-.011a24.923,24.923,0,0,1-4.535-1.637,7.4,7.4,0,0,1-4.241-6.787,59.713,59.713,0,0,1,.83-10.05,22.093,22.093,0,0,1,1.41-4.536c1.83-4.172,4.922-7.378,8.515-7.469,4.172-.113,6.1,6.48,6.536,8.265.069.3.1.466.1.489C200.633,329.686,199.758,331.334,198.758,333.142Z" fill="#d1ae88"/>
                <path id="Path_48" data-name="Path 48" d="M165.63,312.884a35.255,35.255,0,0,0,.182,6.627l-23.669-8.537c1.387-41.074,31.161-73.28,31.161-73.28,7.967,4.308,16.534,9.567,24.253,13.785C172.41,278.638,166.21,302.05,165.63,312.884Z" fill="#dbdcdd"/>
                <path id="Path_49" data-name="Path 49" d="M173.3,237.69c0,.01-.02.02-.04.04s-.08.09-.15.17c-.18.21-.5.56-.92,1.06-.09.1-.17.2-.26.31-.33.38-.7.83-1.13,1.35-.25.32-.53.66-.82,1.02-.61.77-1.29,1.65-2.03,2.62-.18.24-.37.49-.56.75-.76,1.02-1.57,2.15-2.42,3.36-.38.54-.76,1.1-1.16,1.68-.27.4-.54.8-.81,1.21-.22.34-.45.69-.68,1.03q-.675,1.05-1.38,2.16c-.23.37-.46.75-.7,1.13-.7,1.15-1.41,2.34-2.12,3.57-.24.41-.47.83-.71,1.25-.47.84-.95,1.7-1.42,2.59-.44.81-.88,1.64-1.31,2.49a1.246,1.246,0,0,1-.1.2c-.23.46-.46.93-.69,1.39-1.61,3.28-3.17,6.77-4.59,10.44-.39,1-.77,2.02-1.14,3.05-.38,1.09-.76,2.19-1.11,3.3-.18.54-.35,1.09-.52,1.64a102.078,102.078,0,0,0-3.81,17.88c-.13,1.13-.25,2.27-.34,3.42q-.165,2.07-.24,4.17c-.1,2.9-5.41,3.48-7.41,3.56-5.55.24-19.56-7.85-31.55-15.43-2.21-1.41-4.36-2.8-6.37-4.11V182.35c6.3,3.99,16.65,10.97,27.62,18.45,19.99,13.67,41.99,29.02,44.99,30.98C170.59,232.56,175.05,235.8,173.3,237.69Z" fill="#e6e7e8"/>
              </g>
            </g>
          </g>
        </g>
        <path id="Path_50" data-name="Path 50" d="M124.43,200.8c-5.76.78-12.25,3.27-16.49,9.78-8.35,12.85-12.3,61.72-4.76,88.52-2.21-1.41-4.36-2.8-6.37-4.11V182.35C103.11,186.34,113.46,193.32,124.43,200.8Z" fill="#dbdcdd"/>
        <path id="Path_51" data-name="Path 51" d="M293.158,143.621Z" fill="#231f20"/>
        <path id="Path_52" data-name="Path 52" d="M222.919,120.74H217.2a5.489,5.489,0,0,0-5.445-5.054h-8.575a7.4,7.4,0,0,0,.276-1.979,7.491,7.491,0,0,0-7.468-7.469h-13.15a7.49,7.49,0,0,0-7.468,7.469,7.4,7.4,0,0,0,.276,1.979h-1.17a5.488,5.488,0,0,0-5.445,5.054h-1.721a7.091,7.091,0,0,0,0,14.181h55.61a7.091,7.091,0,1,0,0-14.181Z" fill="#dfe1f7"/>
        <path id="Path_53" data-name="Path 53" d="M316.95,320.618a.407.407,0,0,1,.19.1" fill="#a1cfe2"/>
        <g id="Group_16" data-name="Group 16">
          <path id="Path_54" data-name="Path 54" d="M239.327,284.3l.436-.378a15.243,15.243,0,0,1,1.273-1.044,13.907,13.907,0,0,1,5.469-2.358,20.441,20.441,0,0,1,8.478.375,43.119,43.119,0,0,1,4.52,1.352l2.246.8,1.116.4,1.175.454a70.738,70.738,0,0,1,8.373,4.552c2.565,1.536,4.892,3.047,7.005,4.107a27.492,27.492,0,0,0,5.248,2.2,9.376,9.376,0,0,0,1.57.368l.57.1-.577.026a9.754,9.754,0,0,1-1.649-.015,21.3,21.3,0,0,1-5.732-1.4,72.057,72.057,0,0,1-7.513-3.476c-2.667-1.374-5.426-2.988-8.252-4.163l-1.054-.428-1.13-.425-2.213-.843c-1.458-.547-2.881-1.076-4.27-1.492a20.927,20.927,0,0,0-7.726-1.106,15.532,15.532,0,0,0-5.412,1.392,15.076,15.076,0,0,0-1.442.73Z" fill="#b79370"/>
        </g>
        <g id="Group_17" data-name="Group 17">
          <path id="Path_55" data-name="Path 55" d="M291.1,334.7l-.176-.335a10.135,10.135,0,0,0-.52-.923c-.455-.791-1.192-1.866-2.086-3.146-.878-1.291-2-2.731-3.18-4.282-1.2-1.539-2.476-3.181-3.818-4.77-1.313-1.612-2.687-3.171-3.992-4.616-1.323-1.426-2.544-2.779-3.694-3.829-.563-.54-1.081-1.033-1.563-1.444a15.514,15.514,0,0,0-1.251-1.066l-1.129-.895,1.267.695c.408.22.864.541,1.4.9a17.606,17.606,0,0,1,1.736,1.284,48.084,48.084,0,0,1,4.028,3.6c1.4,1.393,2.807,2.964,4.157,4.579s2.614,3.3,3.742,4.917,2.091,3.191,2.886,4.555a29.259,29.259,0,0,1,1.713,3.413c.189.419.279.777.363,1.007Z" fill="#b79370"/>
        </g>
        <g id="Group_18" data-name="Group 18">
          <path id="Path_56" data-name="Path 56" d="M279.53,345.158l-.832-.866c-.507-.568-1.275-1.345-2.13-2.328l-2.952-3.328-3.347-3.832c-1.127-1.313-2.29-2.59-3.367-3.8-1.1-1.184-2.1-2.323-3.031-3.222s-1.693-1.666-2.271-2.16l-.914-.772,1.058.576a24.906,24.906,0,0,1,2.6,1.835c1.02.83,2.182,1.833,3.354,2.983s2.356,2.433,3.513,3.74c1.137,1.323,2.257,2.66,3.254,3.955s1.882,2.536,2.654,3.589,1.346,1.984,1.774,2.614Z" fill="#b79370"/>
        </g>
        <g id="Group_19" data-name="Group 19">
          <path id="Path_57" data-name="Path 57" d="M270.435,356.458l-.85-.587c-.523-.393-1.3-.918-2.183-1.616s-1.928-1.484-3.006-2.381-2.217-1.867-3.348-2.845c-1.115-1-2.232-1.992-3.25-2.958s-1.94-1.9-2.746-2.679-1.424-1.491-1.882-1.96l-.69-.769.853.588c.524.395,1.307.92,2.185,1.618s1.93,1.483,3.006,2.38,2.213,1.866,3.343,2.843c1.113,1,2.228,1.99,3.245,2.955s1.939,1.9,2.745,2.678,1.426,1.493,1.884,1.963Z" fill="#b79370"/>
        </g>
        <g id="Group_20" data-name="Group 20">
          <path id="Path_58" data-name="Path 58" d="M235.4,264.539l.56-.651c.377-.393.9-.974,1.609-1.588a30.516,30.516,0,0,1,2.505-1.995,25.354,25.354,0,0,1,3.161-1.9,21.5,21.5,0,0,1,3.452-1.36c.579-.143,1.144-.264,1.679-.361l1.531-.154a9.794,9.794,0,0,1,2.282.2l.835.2-.855.046a15.525,15.525,0,0,0-2.182.249l-1.415.348-1.539.515a34.01,34.01,0,0,0-3.231,1.429c-1.087.527-2.141,1.128-3.125,1.705s-1.908,1.122-2.675,1.63-1.436.9-1.876,1.216Z" fill="#e8c8a1"/>
        </g>
        <g id="Group_21" data-name="Group 21">
          <path id="Path_59" data-name="Path 59" d="M214.832,360.119l-1.121-.84a24.647,24.647,0,0,1-2.742-2.5,13.573,13.573,0,0,1-2.925-4.476,7.053,7.053,0,0,1-.4-3.124,7.908,7.908,0,0,1,.33-1.589l.438-1.45c.607-1.939,1.247-3.877,1.943-5.659s1.446-3.41,2.131-4.781a28.693,28.693,0,0,1,1.886-3.188c.524-.726.842-1.122.842-1.122s-.246.448-.632,1.245c-.406.787-.883,1.958-1.458,3.354s-1.134,3.073-1.737,4.863-1.206,3.715-1.785,5.654l-.46,1.453a6.956,6.956,0,0,0-.307,1.35,6.4,6.4,0,0,0,.245,2.656,13.955,13.955,0,0,0,2.416,4.363c.924,1.179,1.761,2.132,2.374,2.772Z" fill="#b79370"/>
        </g>
        <g id="Group_22" data-name="Group 22">
          <path id="Path_60" data-name="Path 60" d="M227.747,342.919l-.432.763a21.05,21.05,0,0,0-1.019,2.028,17.621,17.621,0,0,0-1.029,2.983,19.024,19.024,0,0,0-.578,3.533,14.569,14.569,0,0,0,.129,3.539A6.657,6.657,0,0,0,226,358.53a17.13,17.13,0,0,0,1.406,1.769c.366.417.6.639.6.639s-.282-.149-.757-.454a10.63,10.63,0,0,1-1.792-1.514A6.764,6.764,0,0,1,223.748,356a12.494,12.494,0,0,1-.3-3.862,15.135,15.135,0,0,1,.773-3.764,14.27,14.27,0,0,1,1.462-3,11.949,11.949,0,0,1,1.439-1.84Z" fill="#b79370"/>
        </g>
        <g id="Group_23" data-name="Group 23">
          <path id="Path_61" data-name="Path 61" d="M238.4,354.321l.031.159a3.668,3.668,0,0,1,.037.409c0,.166.01.362-.009.567s-.05.42-.085.635-.094.425-.158.621-.146.374-.2.529a3.52,3.52,0,0,1-.187.366c-.057.086-.088.135-.088.135s-.012-.058-.032-.158a3.486,3.486,0,0,1-.037-.41c0-.165-.011-.363.009-.566s.051-.421.086-.636.094-.425.158-.62.146-.374.2-.529a3.327,3.327,0,0,1,.187-.366Z" fill="#b79370"/>
        </g>
        <g id="Group_24" data-name="Group 24">
          <path id="Path_62" data-name="Path 62" d="M201.475,328.265l-.418.936c-.29.58-.669,1.433-1.18,2.415s-1.061,2.153-1.678,3.383c-.594,1.242-1.246,2.554-1.819,3.9-.6,1.332-1.14,2.687-1.591,3.973-.226.644-.444,1.266-.615,1.867a15.346,15.346,0,0,0-.452,1.7c-.137.531-.208,1.025-.293,1.465a6.6,6.6,0,0,0-.164,1.147l-.112,1.016s-.047-.369-.131-1.017a8.539,8.539,0,0,1-.059-1.183,9.466,9.466,0,0,1,.068-1.539c.064-.56.124-1.173.256-1.806a16.394,16.394,0,0,1,.456-1.984,31.173,31.173,0,0,1,1.5-4.145c.613-1.368,1.3-2.7,1.993-3.91s1.427-2.295,2.043-3.223,1.2-1.657,1.574-2.186Z" fill="#b79370"/>
        </g>
        <g id="Group_25" data-name="Group 25">
          <path id="Path_63" data-name="Path 63" d="M327.746,168.65v-1.7H294.777V148.49h31.264v20.16h1.705v0h1.706V146.785a1.705,1.705,0,0,0-1.706-1.705H293.071a1.705,1.705,0,0,0-1.705,1.705V168.65a1.705,1.705,0,0,0,1.705,1.705h34.675a1.705,1.705,0,0,0,1.706-1.705Z" fill="#b1b2f3"/>
          <path id="Path_64" data-name="Path 64" d="M292.009,148.119l17.338,13.812a1.709,1.709,0,0,0,2.125,0l17.337-13.812a1.705,1.705,0,0,0-2.125-2.668l-16.275,12.966-16.275-12.966a1.705,1.705,0,0,0-2.125,2.668Z" fill="#b1b2f3"/>
        </g>
        <g id="Group_26" data-name="Group 26">
          <rect id="Rectangle_2" data-name="Rectangle 2" width="16.42" height="2.737" transform="translate(293.989 386.428)" fill="#fbd15b"/>
          <path id="Path_65" data-name="Path 65" d="M322.724,380.954a4.24,4.24,0,0,0-.466.029,5.447,5.447,0,0,1,0,8.154,4.239,4.239,0,0,0,.466.028,4.105,4.105,0,0,0,0-8.211Z" fill="#fbd15b"/>
          <path id="Path_66" data-name="Path 66" d="M322.724,385.06a4.1,4.1,0,1,1-4.105-4.106A4.105,4.105,0,0,1,322.724,385.06Z" fill="#fbd15b"/>
          <rect id="Rectangle_3" data-name="Rectangle 3" width="43.788" height="5.473" transform="translate(288.515 371.376)" fill="#fbd15b"/>
          <path id="Path_67" data-name="Path 67" d="M329.566,393.269v-.92H291.252a1.819,1.819,0,0,1-1.816-1.816V368.639a1.819,1.819,0,0,1,1.816-1.817h38.314a1.819,1.819,0,0,1,1.816,1.817v21.894a1.819,1.819,0,0,1-1.816,1.816v1.841a3.657,3.657,0,0,0,3.657-3.657V368.639a3.658,3.658,0,0,0-3.657-3.658H291.252a3.659,3.659,0,0,0-3.658,3.658v21.894a3.658,3.658,0,0,0,3.658,3.657h38.314Z" fill="#fbd15b"/>
        </g>
        <g id="Group_27" data-name="Group 27">
          <path id="Path_68" data-name="Path 68" d="M183.819,392.915h10.55a1.705,1.705,0,0,0,1.705-1.706v-19.45a1.7,1.7,0,0,0-.541-1.246L180.22,356.2a1.706,1.706,0,0,0-2.328,0l-15.325,14.313a1.7,1.7,0,0,0-.541,1.246v19.45a1.705,1.705,0,0,0,1.705,1.706h10.55a1.706,1.706,0,0,0,0-3.411h-8.845v-17l13.619-12.72L192.664,372.5V389.5h-8.845a1.706,1.706,0,0,0,0,3.411Z" fill="#b1b2f3"/>
          <path id="Path_69" data-name="Path 69" d="M175.986,391.209V379.466h6.128v11.743a1.705,1.705,0,1,0,3.41,0V377.761a1.705,1.705,0,0,0-1.705-1.706h-9.538a1.707,1.707,0,0,0-1.706,1.706v13.448a1.705,1.705,0,1,0,3.411,0Z" fill="#b1b2f3"/>
        </g>
        <g id="Group_28" data-name="Group 28">
          <path id="Path_70" data-name="Path 70" d="M474.919,279.746s-92.713,0-75.9,94.582C495,370.258,474.919,279.746,474.919,279.746Z" fill="#fbd15b"/>
          <path id="Path_71" data-name="Path 71" d="M468.553,333.476s-10.127,1-20.3,2.069c-5.086.531-10.184,1.077-14.036,1.519-1.927.221-3.541.415-4.69.57-.13.017-.232.032-.349.049L452.672,308.4l22.075-2.42-.127-1.162-20.914,2.292,19.84-24.725-.911-.731L441.7,320.208l-3.395-30.976-1.162.127,3.522,32.138L420.4,346.755l-8.3-29.964-1.1.3,8.522,30.753L406.077,364.6l.912.731,21.1-26.294c.12-.027.33-.066.644-.114,2.967-.454,12.973-1.53,22.208-2.487,4.619-.479,9.052-.93,12.329-1.26l3.928-.395,1.471-.147Z" fill="#fff"/>
        </g>
        <g id="Group_29" data-name="Group 29">
          <path id="Path_72" data-name="Path 72" d="M44.047,302.778s92.713,0,75.9,94.583C23.965,393.29,44.047,302.778,44.047,302.778Z" fill="#606bf1"/>
          <path id="Path_73" data-name="Path 73" d="M50.414,356.508s10.126,1.006,20.3,2.069c5.086.532,10.184,1.077,14.036,1.519,1.927.221,3.541.416,4.691.57l.348.049L66.295,331.437l-22.076-2.42.127-1.162,20.914,2.293L45.42,305.423l.911-.732L77.264,343.24l3.4-30.976,1.162.127L78.3,344.529l20.268,25.258,8.3-29.963,1.1.3L99.444,370.88l13.445,16.756-.912.731-21.1-26.294c-.119-.026-.33-.066-.644-.114-2.967-.454-12.973-1.529-22.208-2.487-4.619-.479-9.051-.929-12.329-1.26l-3.928-.4-1.471-.146Z" fill="#fff"/>
        </g>
        <g id="Group_30" data-name="Group 30">
          <path id="Path_74" data-name="Path 74" d="M149.51,159.537a14.294,14.294,0,0,1-1.694-1.967,2.663,2.663,0,0,1-.466-1.08,2,2,0,0,1,.182-.614,8.666,8.666,0,0,1,1.626-2.115,53.2,53.2,0,0,0,4.24-4.524,13.249,13.249,0,0,0,1.819-3.1,10.209,10.209,0,0,0,.762-3.876,1.955,1.955,0,0,0-.569-1.376,1.926,1.926,0,0,0-1.364-.568H133.265a1.954,1.954,0,0,0-1.376.568,2.006,2.006,0,0,0-.568,1.376,10.749,10.749,0,0,0,1.637,5.593,31.238,31.238,0,0,0,4.831,5.548,14.108,14.108,0,0,1,1.694,1.966,3.317,3.317,0,0,1,.387.728,1.679,1.679,0,0,1,.079.352,1.741,1.741,0,0,1-.17.614,9.007,9.007,0,0,1-1.637,2.115A53.4,53.4,0,0,0,133.9,163.7a13.644,13.644,0,0,0-1.807,3.1,10.148,10.148,0,0,0-.773,3.876,2.006,2.006,0,0,0,.568,1.376,1.953,1.953,0,0,0,1.376.568h20.781a1.926,1.926,0,0,0,1.364-.568,1.955,1.955,0,0,0,.569-1.376,10.642,10.642,0,0,0-1.626-5.593A30.338,30.338,0,0,0,149.51,159.537Zm-12.528-12.665a9.6,9.6,0,0,1-1.3-2.2c-.068-.16-.113-.319-.17-.478h16.279a7.959,7.959,0,0,1-.762,1.649,28.176,28.176,0,0,1-4.285,4.831,17.426,17.426,0,0,0-2.172,2.569,6.8,6.8,0,0,0-.784,1.546,2.858,2.858,0,0,0-.137.432,6.714,6.714,0,0,0-.363-.977,12.046,12.046,0,0,0-2.342-3.161A54.218,54.218,0,0,1,136.982,146.872Zm-1.466,21.861a7.643,7.643,0,0,1,.761-1.637,27.736,27.736,0,0,1,4.275-4.831,17.45,17.45,0,0,0,2.183-2.569,7.611,7.611,0,0,0,.784-1.547,2.68,2.68,0,0,0,.136-.432,6.545,6.545,0,0,0,.353.978,12.332,12.332,0,0,0,2.353,3.161,51.541,51.541,0,0,1,3.956,4.195,9.7,9.7,0,0,1,1.308,2.205q.084.238.17.477Z" fill="#fbd15b"/>
        </g>
        <g id="Group_31" data-name="Group 31">
          <path id="Path_75" data-name="Path 75" d="M272.04,121.887h-1.307v24.156l-9.02,11.387h-16.55V123.195H272.04v-1.308h0v-1.308H243.855a1.308,1.308,0,0,0-1.307,1.308v36.851a1.308,1.308,0,0,0,1.307,1.308h18.491a1.3,1.3,0,0,0,1.025-.5l9.694-12.24a1.3,1.3,0,0,0,.283-.812V121.887a1.308,1.308,0,0,0-1.308-1.308Z" fill="#fbd15b"/>
          <path id="Path_76" data-name="Path 76" d="M262.346,158.738h1.308V147.806h5.682l-8.015,10.12,1.025.812h0l1.025.812,9.694-12.24a1.308,1.308,0,0,0-1.025-2.12h-9.694a1.308,1.308,0,0,0-1.308,1.308v12.24a1.308,1.308,0,0,0,2.333.812Z" fill="#fbd15b"/>
          <path id="Path_77" data-name="Path 77" d="M249.008,129.781h18.186v-2.615H249.008" fill="#fbd15b"/>
          <path id="Path_78" data-name="Path 78" d="M249.008,134.766h18.186V132.15H249.008" fill="#fbd15b"/>
          <path id="Path_79" data-name="Path 79" d="M249.008,139.751h14.408v-2.615H249.008" fill="#fbd15b"/>
        </g>
        <g id="Group_32" data-name="Group 32">
          <path id="Path_80" data-name="Path 80" d="M429.508,166.061l-.935-.353a18.569,18.569,0,0,0,.787-2.809l.98.2A19.621,19.621,0,0,1,429.508,166.061Zm1.166-4.969-.991-.132c.121-.91.214-1.9.277-2.951l1,.06C430.894,159.141,430.8,160.158,430.674,161.092Zm.368-5.039-1-.025c.017-.62.023-1.241.023-1.862,0-.374,0-.748-.007-1.12l1-.013q.007.565.007,1.133C431.065,154.795,431.059,155.426,431.042,156.053Zm-1.027-5c-.03-1.022-.072-2.024-.116-2.989l1-.046c.044.97.086,1.978.117,3.006Zm-.211-4.987-.041-.859q-.049-1.061-.144-2.113l1-.09q.1,1.074.147,2.157l.041.858Zm-.4-4.936c-.13-.979-.292-1.964-.483-2.927l.98-.2c.2.984.362,1.99.495,2.99Zm-118.735-2.979-.974-.228c.224-.96.425-1.934.617-2.916l.981.191C311.094,136.194,310.891,137.181,310.664,138.153Zm117.825-1.878c-.232-.957-.5-1.918-.8-2.857l.954-.3c.3.96.576,1.942.814,2.921Zm-46.6-.634c-.15,0-.3,0-.453-.011l.048-1a7.652,7.652,0,0,0,2.776-.364l.313.95A8.582,8.582,0,0,1,381.888,135.641Zm-2.526-.331a12.531,12.531,0,0,1-1.566-.519,10.129,10.129,0,0,1-1.334-.655l.507-.863a8.941,8.941,0,0,0,1.2.591,11.231,11.231,0,0,0,1.44.477Zm7.122-1.008-.543-.84a8.108,8.108,0,0,0,2.05-1.923l.8.6A9.127,9.127,0,0,1,386.484,134.3Zm-74.821-1.07-.983-.185c.184-.98.369-1.966.568-2.952l.98.2C312.03,131.274,311.846,132.255,311.663,133.232Zm63.113-.362a9.745,9.745,0,0,1-1.9-2.51l.883-.47a8.747,8.747,0,0,0,1.7,2.254Zm52.283-1.323c-.339-.931-.713-1.856-1.109-2.749l.914-.406c.4.914.787,1.86,1.134,2.813Zm-37.182-1.2-.9-.433a10.818,10.818,0,0,0,.877-2.721l.983.181A11.783,11.783,0,0,1,389.877,130.351Zm-17.8-1.916a14.513,14.513,0,0,1-.608-3.041l.995-.095a13.641,13.641,0,0,0,.565,2.831Zm-59.428-.085-.975-.223c.245-1.072.493-2.031.757-2.933l.96.281C313.128,126.357,312.886,127.3,312.645,128.35Zm112.461-1.339c-.441-.883-.919-1.758-1.418-2.6l.86-.51c.512.864,1,1.76,1.453,2.664Zm-34.063-1.7-1-.018,0-.229a12.3,12.3,0,0,0-.152-1.924q-.059-.365-.129-.722l.982-.192q.072.375.134.757a13.343,13.343,0,0,1,.165,2.081Zm-77.051-1.71-.943-.334c.267-.754.558-1.487.864-2.179.1-.215.193-.429.292-.64l.9.424c-.1.2-.191.412-.283.621C314.532,122.16,314.25,122.869,313.992,123.6Zm58.4-.24-1-.019a20.806,20.806,0,0,1,.291-3.058l.986.166A19.779,19.779,0,0,0,372.389,123.359Zm50.253-.625c-.544-.826-1.123-1.638-1.718-2.414l.793-.609c.61.795,1.2,1.627,1.76,2.473ZM389.3,120.525a19.193,19.193,0,0,0-1.048-2.722l.9-.43a20.224,20.224,0,0,1,1.1,2.865ZM316,119.12l-.876-.484c.49-.888,1.029-1.76,1.6-2.591l.824.567C317,117.416,316.478,118.259,316,119.12Zm103.678-.335c-.637-.751-1.309-1.486-2-2.186l.712-.7c.707.719,1.4,1.473,2.049,2.241Zm-46.6-.247-.967-.255a22.4,22.4,0,0,1,.982-2.906l.923.385A21.4,21.4,0,0,0,373.078,118.538Zm14.249-2.447a20.447,20.447,0,0,0-1.7-2.381l.771-.636a21.212,21.212,0,0,1,1.778,2.5Zm28.934-.866c-.722-.665-1.481-1.311-2.254-1.922l.62-.784c.792.626,1.57,1.289,2.311,1.97Zm-97.54-.195-.785-.62c.626-.791,1.3-1.563,2.005-2.294l.72.694C319.979,113.518,319.326,114.265,318.721,115.03ZM374.856,114l-.878-.479a15.351,15.351,0,0,1,1.734-2.566l.764.646A14.388,14.388,0,0,0,374.856,114Zm9.466-1.746a25.2,25.2,0,0,0-2.186-1.964l.624-.781a26.14,26.14,0,0,1,2.274,2.043Zm28.106-.14c-.8-.569-1.629-1.117-2.473-1.63l.519-.854c.865.525,1.717,1.086,2.535,1.669Zm-90.357-.682-.675-.738c.739-.675,1.526-1.33,2.339-1.948l.605.8C323.55,110.147,322.787,110.783,322.071,111.437Zm55.752-1.221-.678-.736a18.944,18.944,0,0,1,1.749-1.426c-.276-.166-.558-.329-.843-.489l.489-.872c.907.509,1.777,1.05,2.586,1.609l-.568.823q-.363-.25-.742-.5A17.561,17.561,0,0,0,377.823,110.216Zm30.419-.711q-.586-.318-1.188-.62-.715-.358-1.465-.691l.406-.914q.77.342,1.507.711.616.311,1.217.636Zm-82.3-1.1-.557-.83c.827-.555,1.7-1.089,2.593-1.587l.486.874C327.6,107.346,326.748,107.865,325.943,108.4Zm55.862-.954-.454-.891a20.349,20.349,0,0,1,2.836-1.18l.315.949A19.428,19.428,0,0,0,381.8,107.45Zm21.96,0c-.921-.349-1.865-.663-2.808-.934l.277-.961c.968.278,1.939.6,2.885.959Zm-27.46-.8c-.863-.424-1.773-.832-2.706-1.211l.376-.927c.956.388,1.888.806,2.772,1.241Zm22.743-.628c-.971-.221-1.949-.4-2.907-.533l.136-.99c.988.136,1.994.321,2.993.548Zm-68.835-.071-.441-.9c.895-.44,1.829-.855,2.773-1.235l.373.928C332,105.114,331.086,105.519,330.213,105.947Zm56.17-.144-.226-.975a24.432,24.432,0,0,1,3.021-.5l.1,1A23.182,23.182,0,0,0,386.383,105.8Zm7.8-.528a28.891,28.891,0,0,0-2.946-.073l-.028-1a29.493,29.493,0,0,1,3.049.076Zm-22.435-.546c-.909-.326-1.86-.635-2.827-.919l.282-.959c.985.289,1.955.6,2.882.936Zm-36.98-.68-.331-.944c.941-.33,1.915-.634,2.894-.906l.268.964C336.64,103.429,335.687,103.727,334.768,104.049Zm32.242-.765c-.942-.242-1.918-.467-2.9-.669l.2-.979c1,.205,1.989.434,2.947.679Zm-27.495-.611-.228-.973c.974-.228,1.973-.43,2.969-.6l.169.985C341.449,102.252,340.469,102.45,339.515,102.673Zm22.644-.429c-.995-.174-1.98-.322-2.946-.447l.128-.992c.981.127,1.98.278,2.99.454Zm-17.775-.457-.132-.992c.991-.131,2-.238,3.011-.316l.077,1C346.351,101.553,345.356,101.657,344.384,101.787Zm12.857-.214c-.974-.094-1.972-.165-2.967-.209l.045-1c1.012.045,2.028.117,3.018.213Zm-7.921-.217-.042-1c.811-.034,1.624-.05,2.434-.05l.591,0-.01,1-.581,0Q350.517,101.307,349.32,101.356Z" fill="#dfe1f7"/>
        </g>
        <g id="Group_33" data-name="Group 33">
          <path id="Path_81" data-name="Path 81" d="M57.211,186.606l-.642-.745.759-.652.64.744Zm-1.94-2.274c-.636-.758-1.276-1.538-1.907-2.339l.786-.618c.624.792,1.258,1.565,1.887,2.313Zm-3.131-3.939c-.639-.862-1.206-1.675-1.735-2.485l.838-.547c.517.794,1.073,1.591,1.7,2.436Zm-2.8-4.208c-.531-.912-1.007-1.819-1.415-2.7l.908-.421c.394.85.855,1.73,1.371,2.615Zm-2.2-4.575a22.2,22.2,0,0,1-.877-2.938l.976-.217a21.2,21.2,0,0,0,.838,2.806Zm-1.216-4.962c-.062-.563-.1-1.132-.107-1.691l0-.478c0-.3,0-.6.014-.9l1,.03c-.009.286-.013.576-.014.867l0,.461c.008.527.042,1.064.1,1.6Zm1.033-4.993-1-.1a24.544,24.544,0,0,1,.5-3.018l.974.227A23.526,23.526,0,0,0,46.955,161.655Zm1.013-4.774-.948-.316a19.854,19.854,0,0,1,1.191-2.833l.889.459A18.855,18.855,0,0,0,47.968,156.881Zm2.116-4.363-.832-.555a17.947,17.947,0,0,1,1.921-2.407l.725.688A16.974,16.974,0,0,0,50.084,152.518Zm3.231-3.6-.642-.768a18.941,18.941,0,0,1,2.516-1.771l.508.862A17.745,17.745,0,0,0,53.315,148.917Zm4.107-2.579L57,145.43a22.71,22.71,0,0,1,2.865-1.085l.292.956A21.906,21.906,0,0,0,57.422,146.338Zm24.4-.483-.013-1a15.331,15.331,0,0,0,2.885-.292l.2.979A16.319,16.319,0,0,1,81.821,145.855Zm-2.04-.063c-.889-.062-1.847-.165-3.015-.327l.136-.99c1.145.158,2.082.259,2.948.319Zm-5-.62-.465-.072c-.827-.128-1.659-.257-2.494-.373l.137-.99c.84.117,1.678.246,2.51.375l.464.072Zm12.112-.214-.363-.931a10.441,10.441,0,0,0,2.492-1.389l.6.8A11.447,11.447,0,0,1,86.892,144.958Zm-24.835-.152-.216-.976c.4-.09.817-.17,1.236-.243.575-.1,1.179-.174,1.8-.221l.076,1c-.585.045-1.157.115-1.7.209Q62.64,144.677,62.057,144.806Zm7.795-.32c-1.079-.111-2.043-.171-2.948-.182l.013-1c.935.012,1.929.073,3.038.187Zm21.32-2.433-.723-.69a15.239,15.239,0,0,0,1.779-2.288l.842.54A16.2,16.2,0,0,1,91.172,142.053Zm2.905-4.227-.9-.444c.442-.89.832-1.83,1.189-2.714l.927.374C94.932,135.944,94.532,136.906,94.077,137.826Zm46.5-1.709c-.249-.6-.492-1.218-.736-1.838l-.377-.955.929-.37.379.959c.242.615.482,1.225.728,1.822Zm-44.538-2.928-.925-.379c.342-.835.76-1.818,1.26-2.774l.885.464C96.781,131.419,96.376,132.375,96.042,133.189Zm42.665-1.7a26.228,26.228,0,0,0-1.308-2.636l.867-.5a27.26,27.26,0,0,1,1.358,2.736ZM98.26,128.843l-.819-.574q.136-.193.279-.382a13.7,13.7,0,0,1,1.8-1.929l.665.749a12.661,12.661,0,0,0-1.669,1.786C98.429,128.607,98.343,128.725,98.26,128.843Zm38.078-1.611a11.9,11.9,0,0,0-1.973-2.088l.637-.772a12.935,12.935,0,0,1,2.137,2.261Zm-34.626-1.716-.566-.824a21.013,21.013,0,0,1,2.657-1.541l.439.9A20.134,20.134,0,0,0,101.712,125.516Zm31.073-1.462a19.085,19.085,0,0,0-2.621-1.283l.371-.929a20.024,20.024,0,0,1,2.76,1.352Zm-26.749-.794-.367-.931c.917-.361,1.89-.688,2.89-.973l.273.962C107.863,122.593,106.922,122.91,106.036,123.26Zm22.281-1.133a25.858,25.858,0,0,0-2.862-.681l.178-.985a27.12,27.12,0,0,1,2.972.708Zm-17.574-.29-.215-.977c.99-.218,2-.4,3-.53l.133.991C112.686,121.451,111.706,121.625,110.743,121.837Zm12.766-.677c-.948-.109-1.94-.179-2.95-.209l.03-1c1.037.031,2.058.1,3.034.216Zm-7.886-.055-.088-1c1.022-.09,2.041-.146,3.028-.166l.021,1C117.618,120.962,116.622,121.017,115.623,121.105Z" fill="#dfe1f7"/>
        </g>
        <g id="Group_34" data-name="Group 34">
          <path id="Path_82" data-name="Path 82" d="M226.713,193.828l-.022-1c.972-.022,1.961-.1,2.941-.216l.123.992A30.389,30.389,0,0,1,226.713,193.828Zm-2.036-.029a26.209,26.209,0,0,1-3.039-.328l.167-.987a24.828,24.828,0,0,0,2.922.316Zm7.086-.511-.188-.982c.965-.185,1.929-.42,2.865-.7l.285.959C233.758,192.854,232.761,193.1,231.763,193.288Zm4.89-1.368-.349-.937a26.514,26.514,0,0,0,2.7-1.177l.451.893A27.753,27.753,0,0,1,236.653,191.92Zm4.585-2.219-.532-.846a13.583,13.583,0,0,0,2.276-1.776l.7.715A14.71,14.71,0,0,1,241.238,189.7Zm3.809-3.471-.8-.6q.321-.435.607-.9c-.349-.083-.7-.178-1.036-.285l.3-.954c.407.129.825.239,1.244.329q.17-.334.326-.688l.915.4c-.07.157-.141.311-.215.463q.282.039.56.063l-.089,1c-.318-.028-.642-.069-.967-.122A13.2,13.2,0,0,1,245.047,186.23Zm3.9-1.167-.1-1c.219-.023.431-.054.634-.095a9.24,9.24,0,0,0,2.08-.665l.423.906a10.244,10.244,0,0,1-2.307.74C249.445,185,249.2,185.037,248.951,185.063Zm-7.063-1.378a10.405,10.405,0,0,1-2.6-1.76l.689-.726a9.384,9.384,0,0,0,2.352,1.588Zm11.888-.617-.65-.759a6.907,6.907,0,0,0,1.685-2.205l.9.443A7.879,7.879,0,0,1,253.776,183.068Zm-6.461-1.471-.965-.261a13.275,13.275,0,0,0,.411-2.853l1,.038A14.263,14.263,0,0,1,247.315,181.6Zm-9.349-1.367a5.268,5.268,0,0,1-.623-2.088q-.015-.2-.015-.4a5.576,5.576,0,0,1,.044-.7l.992.121a4.785,4.785,0,0,0-.036.582q0,.165.012.327a4.262,4.262,0,0,0,.507,1.692Zm18.474-1.644-.965-.263a16.234,16.234,0,0,0,.485-2.866l1,.087A17.238,17.238,0,0,1,256.44,178.586Zm-9.75-2.021a6.6,6.6,0,0,0-.812-2.645l.856-.519a7.6,7.6,0,0,1,.949,3.045Zm-7.81-1.172-.907-.42a7.2,7.2,0,0,1,1.939-2.546l.633.775A6.259,6.259,0,0,0,238.88,175.393Zm18.182-1.879-1-.022q.01-.481.01-.965c0-.675-.013-1.349-.029-2.012l1-.025c.016.672.029,1.354.029,2.037Q257.072,173.021,257.062,173.514Zm-12.425-.783a3.333,3.333,0,0,0-2.524-.357l-.254-.967a4.324,4.324,0,0,1,3.265.451Zm11.358-4.218c-.008-.4-.013-.785-.013-1.164,0-.658.015-1.289.056-1.879l1,.069c-.04.569-.054,1.176-.054,1.81,0,.373.005.755.013,1.145Z" fill="#dfe1f7"/>
        </g>
        <g id="Group_35" data-name="Group 35">
          <path id="Path_83" data-name="Path 83" d="M189.077,172.23l-1-.07q.021-.313.021-.625a9.57,9.57,0,0,0-.264-2.2l.974-.23a10.607,10.607,0,0,1,.29,2.428Q189.1,171.882,189.077,172.23Zm-1.837-4.71a15.349,15.349,0,0,0-1.384-2.548l.832-.555a16.351,16.351,0,0,1,1.474,2.716Zm-2.547-4.115a24.8,24.8,0,0,0-2-2.158l.695-.72a26.357,26.357,0,0,1,2.078,2.245Zm-3.459-3.477c-.731-.618-1.518-1.227-2.339-1.81l.578-.815c.845.6,1.654,1.225,2.407,1.862Zm-3.98-2.909c-.828-.525-1.691-1.026-2.563-1.491l.47-.883c.9.477,1.779.991,2.628,1.529Zm-4.331-2.375c-.911-.428-1.829-.814-2.728-1.149l.348-.938c.926.345,1.87.742,2.805,1.181Zm-4.6-1.782a25.013,25.013,0,0,0-2.858-.693l.174-.984a25.72,25.72,0,0,1,2.974.72Zm-4.788-.928a12.461,12.461,0,0,0-1.348-.015l-.046-1a13.973,13.973,0,0,1,1.456.015Z" fill="#dfe1f7"/>
        </g>
        <g id="Group_36" data-name="Group 36">
          <path id="Path_84" data-name="Path 84" d="M240.168,245.879c-.248,0-.494,0-.738-.005l.013-1c.979.015,1.973,0,2.973-.043l.043,1C241.69,245.863,240.925,245.879,240.168,245.879Zm-2.756-.069c-1.018-.052-2.033-.132-3.019-.238l.107-.994c.968.1,1.964.183,2.962.233Zm7.064-.106-.083-1c1-.084,1.995-.2,2.952-.338l.145.989C246.513,245.5,245.5,245.62,244.476,245.7Zm-12.087-.389-.58-.09.16-.987.568.088Zm17.1-.3-.192-.981c.991-.195,1.96-.425,2.878-.683l.271.963C251.5,244.581,250.5,244.817,249.485,245.017Zm4.9-1.309-.329-.944a27.508,27.508,0,0,0,2.727-1.112l.428.9A28.335,28.335,0,0,1,254.38,243.708Zm4.632-2.1-.5-.865a19.792,19.792,0,0,0,2.416-1.644l.624.781A20.808,20.808,0,0,1,259.012,241.606Zm4.07-3.1-.708-.706a15.71,15.71,0,0,0,1.853-2.232l.826.564A16.71,16.71,0,0,1,263.082,238.51Zm3.02-4.149-.892-.452a15.421,15.421,0,0,0,1.058-2.7l.961.277A16.478,16.478,0,0,1,266.1,234.361Z" fill="#dfe1f7"/>
        </g>
        <g id="Group_38" data-name="Group 38">
          <path id="Path_86" data-name="Path 86" d="M373.631,379.161l-1.887-.005,0-1,1.883.005,1.112,0,0,1Zm3.119-.014-.009-1q1.5-.015,2.993-.046l.022,1Q378.255,379.133,376.75,379.147Zm-7.009-.005q-1.5-.015-3-.039l.016-1q1.5.024,3,.039Zm-5-.072-3-.058.02-1,3,.058Zm17.023-.018-.03-1,.5-.015.029,1Zm-22.024-.083-3-.068.023-1,3,.068Zm-5-.112-3-.061.02-1,3,.061Zm-5-.1q-1.5-.025-3-.043l.011-1q1.5.018,3,.043Zm-4.995-.063q-1.5-.011-3-.011v-1q1.5,0,3,.011Z" fill="#dfe1f7"/>
        </g>
        <g id="Group_39" data-name="Group 39">
          <path id="Path_87" data-name="Path 87" d="M381.357,396.741a23.043,23.043,0,0,0-2.7-1.151l.335-.942a23.893,23.893,0,0,1,2.814,1.2ZM376.788,395c-.907-.251-1.849-.471-2.882-.671l.19-.982c1.059.206,2.027.431,2.96.69Zm-4.834-1.007c-.974-.149-1.961-.275-2.956-.388l.113-.994c1.008.115,2.008.243,2.994.394Zm-4.939-.6c-.806-.079-1.614-.152-2.422-.225l-.566-.051.091-1,.565.052c.811.073,1.621.146,2.428.224Zm-4.982-.461c-1-.1-2-.2-3-.322l.12-.992c.985.119,1.977.223,2.972.318Zm-4.993-.589c-1.07-.159-2.046-.332-2.983-.53l.206-.978c.917.193,1.874.362,2.924.519Zm-4.955-1a30.391,30.391,0,0,1-2.9-.929l.356-.936a28.73,28.73,0,0,0,2.806.9Zm-4.778-1.728a21.188,21.188,0,0,1-2.666-1.515l.557-.83a20.336,20.336,0,0,0,2.54,1.443Z" fill="#dfe1f7"/>
        </g>
        <g id="Group_43" data-name="Group 43">
          <path id="Path_91" data-name="Path 91" d="M204.16,258.582s.316.11.877.249c.553.164,1.369.3,2.325.5s2.1.325,3.309.448c.6.069,1.236.1,1.871.16.64.022,1.288.071,1.938.079,1.3.046,2.6.018,3.825-.006.611-.034,1.2-.049,1.768-.059l1.586-.1c.985-.057,1.81-.124,2.388-.17l.917-.046-.871.285a22.756,22.756,0,0,1-2.335.625l-1.587.316c-.568.087-1.168.174-1.792.247a33.244,33.244,0,0,1-3.935.155c-.671-.022-1.341-.083-2-.128-.656-.087-1.3-.147-1.924-.271a24.9,24.9,0,0,1-3.334-.857,16.307,16.307,0,0,1-2.236-.955C204.435,258.77,204.16,258.582,204.16,258.582Z" fill="#f4dec6"/>
        </g>
      </g>
    </g>
  </g>
</svg>
