<svg xmlns="http://www.w3.org/2000/svg" xmlns:xlink="http://www.w3.org/1999/xlink" width="355" height="66" viewBox="0 0 355 66">
  <defs>
    <clipPath id="clip-path">
      <path id="Path_14" data-name="Path 14" d="M24.324,139.926H91.495V205.7H24.324Zm0,0" transform="translate(-24.324 -139.926)" fill="#fff"/>
    </clipPath>
    <clipPath id="clip-logo_white">
      <rect width="355" height="66"/>
    </clipPath>
  </defs>
  <g id="logo_white" clip-path="url(#clip-logo_white)">
    <g id="Group_27" data-name="Group 27" transform="translate(0 0.104)" clip-path="url(#clip-path)">
      <path id="Path_13" data-name="Path 13" d="M57.028,139.945a32.831,32.831,0,0,0,0,65.662c.611,0,1.222-.028,1.833-.065a32.809,32.809,0,0,1-.537-65.532C57.893,139.983,57.458,139.959,57.028,139.945Zm2.449,18.273-22.37,20.93,22.426-12.481,24.449,14.088-8.292-7.63h.153v-8.032H71.319v4.014Zm31.2,10.01v0Zm0,.013A30.209,30.209,0,0,1,30.8,175.834c.018.4.046.8.079,1.2a30.24,30.24,0,1,0,60.059-7.121C90.865,169.357,90.777,168.8,90.675,168.241Zm-35.291,3.941v3.745h3.727v-3.745Zm4.8,0v3.745h3.731v-3.745Zm-4.8,4.634v3.745h3.727v-3.745Zm4.893,0v3.745h3.731v-3.745Zm0,0" transform="translate(-24.324 -139.922)" fill="#fff"/>
    </g>
    <path id="Path_25" data-name="Path 25" d="M1.406-1.71a7.912,7.912,0,0,0,1.068,3.7A8.839,8.839,0,0,0,5.132,4.8,13.235,13.235,0,0,0,9.1,6.6a18.4,18.4,0,0,0,4.984.64,17.214,17.214,0,0,0,4.96-.663,11.294,11.294,0,0,0,3.774-1.9A8.486,8.486,0,0,0,25.234,1.7a8.749,8.749,0,0,0,.854-3.885,7.545,7.545,0,0,0-1.472-4.809,12.439,12.439,0,0,0-3.68-3.127,26.385,26.385,0,0,0-4.8-2.108q-2.588-.853-4.8-1.8a14.787,14.787,0,0,1-3.68-2.179,4.049,4.049,0,0,1-1.472-3.269,4.7,4.7,0,0,1,.5-2.132A4.922,4.922,0,0,1,8.16-23.337a7.9,7.9,0,0,1,2.4-1.184,10.869,10.869,0,0,1,3.274-.45,9.972,9.972,0,0,1,5.244,1.3,5.337,5.337,0,0,1,2.539,4.1h3.227a7.394,7.394,0,0,0-1.281-3.15,9.012,9.012,0,0,0-2.515-2.369,11.842,11.842,0,0,0-3.44-1.469,15.931,15.931,0,0,0-4.009-.5,14.9,14.9,0,0,0-4.152.569,11,11,0,0,0-3.464,1.658A7.962,7.962,0,0,0,3.61-22.082a7.979,7.979,0,0,0-.878,3.79,6.8,6.8,0,0,0,1.421,4.5,11.678,11.678,0,0,0,3.577,2.843A28.9,28.9,0,0,0,12.4-9.006a38.294,38.294,0,0,1,4.666,1.824A12.112,12.112,0,0,1,20.64-4.695,5.414,5.414,0,0,1,22.062-.763a4.932,4.932,0,0,1-2.25,4.5,11.11,11.11,0,0,1-5.993,1.421,12.194,12.194,0,0,1-4.785-.782A7.568,7.568,0,0,1,6.286,2.506,5.93,5.93,0,0,1,5.007.256,9.393,9.393,0,0,1,4.628-1.71ZM53.377-3.084l4.548,9.759h4.6L47.076-26.487H44.707L30.684,6.675h2.179l4.169-9.759Zm-.995-2.132H37.932l6.822-15.965h.189ZM72.848-26.487H69.627V6.675h2.085V-20.376H71.9L86.54,7.244h.853l14.971-27.43h.189V6.675h4.311V-26.487h-3.269L88.245,1.985h-.189ZM114.3-1.71a7.912,7.912,0,0,0,1.068,3.7A8.84,8.84,0,0,0,118.027,4.8a13.235,13.235,0,0,0,3.964,1.8,18.4,18.4,0,0,0,4.984.64,17.214,17.214,0,0,0,4.96-.663,11.294,11.294,0,0,0,3.774-1.9A8.486,8.486,0,0,0,138.13,1.7a8.749,8.749,0,0,0,.854-3.885,7.545,7.545,0,0,0-1.472-4.809,12.439,12.439,0,0,0-3.68-3.127,26.385,26.385,0,0,0-4.8-2.108q-2.588-.853-4.8-1.8a14.787,14.787,0,0,1-3.68-2.179,4.049,4.049,0,0,1-1.472-3.269,4.7,4.7,0,0,1,.5-2.132,4.922,4.922,0,0,1,1.471-1.729,7.9,7.9,0,0,1,2.4-1.184,10.869,10.869,0,0,1,3.274-.45,9.972,9.972,0,0,1,5.244,1.3,5.337,5.337,0,0,1,2.539,4.1h3.227a7.394,7.394,0,0,0-1.281-3.15,9.012,9.012,0,0,0-2.515-2.369,11.842,11.842,0,0,0-3.44-1.469,15.931,15.931,0,0,0-4.009-.5,14.9,14.9,0,0,0-4.152.569,11,11,0,0,0-3.464,1.658,7.962,7.962,0,0,0-2.372,2.748,7.979,7.979,0,0,0-.878,3.79,6.8,6.8,0,0,0,1.421,4.5,11.678,11.678,0,0,0,3.577,2.843,28.9,28.9,0,0,0,4.666,1.942,38.294,38.294,0,0,1,4.666,1.824,12.112,12.112,0,0,1,3.577,2.487,5.414,5.414,0,0,1,1.421,3.932,4.932,4.932,0,0,1-2.25,4.5,11.109,11.109,0,0,1-5.993,1.421,12.194,12.194,0,0,1-4.785-.782,7.568,7.568,0,0,1-2.748-1.871A5.93,5.93,0,0,1,117.9.256a9.393,9.393,0,0,1-.379-1.966Zm31.647-24.777V-6.116a27.053,27.053,0,0,0,.379,4.287,10.337,10.337,0,0,0,1.8,4.359,10.71,10.71,0,0,0,4.216,3.364,17.792,17.792,0,0,0,7.627,1.35,14.265,14.265,0,0,0,5.377-.948,11.123,11.123,0,0,0,3.932-2.606A10.961,10.961,0,0,0,171.673-.17a13.622,13.622,0,0,0,.805-4.714v-21.6h-2.085v20.04q0,1.042-.047,2.108a12.337,12.337,0,0,1-.284,2.132A9.845,9.845,0,0,1,169.328-.1a8.72,8.72,0,0,1-1.445,2.085A8.732,8.732,0,0,1,164.046,4.5a14.9,14.9,0,0,1-4.453.663,9.447,9.447,0,0,1-3.529-.616A9.842,9.842,0,0,1,153.149,2.7,8.1,8.1,0,0,1,151.491.8a8.518,8.518,0,0,1-.853-1.871,7.638,7.638,0,0,1-.332-1.871q-.047-.948-.047-1.9V-26.487Zm62.725,0V-1.142h-.19L182.19-27.056h-.237V6.675h2.179V-18.671h.19L210.616,7.244h.237V-26.487Zm13.549,0V6.675h21.414V4.07h-17.1V-9.811H241.22v-2.179H226.534V-23.882h17.1v-2.606Zm24.256,0L260.36,6.675H263.2l13.455-33.163h-2.464L263.155.8h-.19L251.6-26.487Z" transform="translate(77.765 42.906)" fill="#fff"/>
  </g>
</svg>
